<?xml version="1.0" standalone="no"?>
<!DOCTYPE svg PUBLIC "-//W3C//DTD SVG 1.1//EN" "http://www.w3.org/Graphics/SVG/1.1/DTD/svg11.dtd" >
<svg xmlns="http://www.w3.org/2000/svg">
<metadata>Generated by IcoMoon</metadata>
<defs>
<font id="icomoon" horiz-adv-x="1024">
<font-face units-per-em="1024" ascent="960" descent="-64" />
<missing-glyph horiz-adv-x="1024" />
<glyph unicode="&#x20;" d="" horiz-adv-x="512" />
<glyph unicode="&#xe600;" d="M905.846 121.108c78.769 90.585 118.154 208.738 118.154 326.892 0 122.092-43.323 236.308-118.154 326.892v0l-15.754 19.692c-98.462 106.338-232.369 165.415-378.092 165.415-35.446 0-70.892-3.938-106.338-11.815-102.4-23.631-196.923-74.831-271.754-153.6v0c0 0 0 0 0 0s0 0 0 0l-15.754-15.754c-74.831-94.523-118.154-208.738-118.154-330.831s43.323-236.308 118.154-326.892v0l15.754-19.692c98.462-106.338 236.308-165.415 378.092-165.415h3.938c35.446 0 70.892 3.938 106.338 11.815 102.4 23.631 196.923 74.831 267.815 153.6 0 0 0 0 0 0l15.754 19.692zM831.015 101.415c-3.938-3.938-11.815-7.877-15.754-11.815-7.877-3.938-11.815-11.815-19.692-15.754-3.938-3.938-11.815-7.877-15.754-11.815-7.877-3.938-15.754-7.877-23.631-15.754-3.938-3.938-11.815-7.877-15.754-11.815-7.877-3.938-15.754-7.877-23.631-11.815s-11.815-7.877-19.692-7.877c-7.877-3.938-15.754-7.877-23.631-7.877-7.877-3.938-11.815-3.938-19.692-7.877 0 0 0 0-3.938 0 39.385 35.446 70.892 86.646 98.462 149.662 35.446-11.815 66.954-23.631 94.523-35.446-3.938-7.877-7.877-7.877-11.815-11.815zM354.462 2.954c-7.877 3.938-15.754 7.877-23.631 7.877-7.877 3.938-15.754 7.877-23.631 11.815s-15.754 7.877-23.631 11.815c-7.877 3.938-11.815 7.877-19.692 11.815s-15.754 7.877-23.631 15.754c-7.877 3.938-11.815 7.877-15.754 11.815-7.877 3.938-11.815 11.815-19.692 15.754-3.938 3.938-7.877 7.877-11.815 11.815s-3.938 3.938-7.877 7.877c27.569 15.754 59.077 27.569 94.523 35.446 23.631-63.015 59.077-114.215 98.462-149.662 0 0 0 0 0 0-11.815 3.938-19.692 7.877-23.631 7.877zM192.985 794.585c3.938 3.938 7.877 7.877 15.754 15.754 7.877 3.938 11.815 11.815 19.692 15.754 3.938 3.938 11.815 7.877 15.754 11.815 7.877 3.938 15.754 7.877 23.631 15.754 7.877 3.938 11.815 7.877 19.692 11.815s15.754 7.877 23.631 11.815c3.938 0 11.815 3.938 15.754 3.938 7.877 3.938 19.692 7.877 27.569 11.815s11.815 3.938 19.692 7.877c-39.385-39.385-70.892-90.585-98.462-153.6-31.508 11.815-66.954 23.631-94.523 39.385 3.938 3.938 7.877 3.938 11.815 7.877zM673.477 893.046c7.877-3.938 15.754-7.877 23.631-7.877 7.877-3.938 11.815-7.877 19.692-11.815s15.754-7.877 23.631-11.815c7.877-3.938 11.815-7.877 19.692-11.815s15.754-7.877 19.692-15.754c3.938-3.938 11.815-7.877 15.754-11.815 7.877-3.938 11.815-11.815 19.692-15.754s11.815-7.877 15.754-11.815c3.938-3.938 3.938-3.938 7.877-7.877-27.569-15.754-59.077-27.569-94.523-35.446-23.631 63.015-59.077 114.215-98.462 149.662 0 0 0 0 3.938 0 11.815-3.938 15.754-7.877 23.631-7.877zM799.508 467.692c0 90.585-15.754 173.292-39.385 244.185 39.385 11.815 74.831 27.569 106.338 43.323 70.892-82.708 110.277-181.169 114.215-287.508h-181.169zM535.631 916.677c70.892-11.815 133.908-78.769 173.292-181.169-55.138-11.815-114.215-19.692-173.292-23.631v204.8zM496.246 715.815c-63.015 0-126.031 7.877-181.169 23.631 43.323 102.4 106.338 169.354 181.169 181.169v-204.8zM299.323 700.062c63.015-15.754 126.031-23.631 192.985-23.631v-208.738h-228.431c0 86.646 15.754 165.415 35.446 232.369zM496.246 428.308v-208.738c-66.954 0-133.908-7.877-192.985-23.631-23.631 66.954-35.446 149.662-39.385 232.369h232.369zM496.246 180.185v-204.8c-74.831 7.877-137.846 78.769-181.169 181.169 55.138 15.754 114.215 23.631 181.169 23.631zM535.631 180.185c63.015 0 118.154-7.877 173.292-23.631-43.323-98.462-102.4-169.354-173.292-181.169v204.8zM724.677 195.938c-59.077 15.754-122.092 23.631-189.046 23.631v208.738h228.431c-3.938-86.646-19.692-165.415-39.385-232.369zM535.631 467.692v208.738c66.954 0 129.969 11.815 189.046 23.631 23.631-66.954 35.446-149.662 39.385-232.369h-228.431zM263.877 711.877c-23.631-70.892-39.385-153.6-39.385-244.185h-185.108c3.938 106.338 43.323 208.738 114.215 287.508 31.508-15.754 70.892-31.508 110.277-43.323zM224.492 428.308c0-90.585 15.754-173.292 39.385-244.185-39.385-11.815-74.831-27.569-106.338-43.323-70.892 82.708-110.277 181.169-114.215 287.508h181.169zM760.123 184.123c23.631 70.892 39.385 153.6 39.385 244.185h185.108c-3.938-106.338-43.323-208.738-114.215-287.508-31.508 15.754-70.892 31.508-110.277 43.323z" />
<glyph unicode="&#xe601;" d="M610.554 931.155l4.808-379.793h379.793v48.075h-298.066l322.103 326.911-33.653 33.653-326.911-322.103v298.066zM33.653-64l326.911 326.911v-302.873l48.075 4.808v379.793l-379.793 4.808-4.808-52.883h302.873l-326.911-322.103z" horiz-adv-x="1019" />
<glyph unicode="&#xe602;" d="M1019.192 580.207v379.793h-379.793l-4.808-48.075h298.066l-322.103-326.911 33.653-33.653 326.911 322.103v-298.066zM374.986 349.446l-326.911-326.911v302.873l-48.075-4.808v-379.793l379.793-4.808 4.808 52.883h-302.873l326.911 322.103z" horiz-adv-x="1019" />
<glyph unicode="&#xe603;" d="M749.568 476.672c0 90.112-53.248 172.032-135.168 208.896v274.432l-450.56-286.72h-163.84v-409.6h163.84l450.56-327.68v331.776c77.824 36.864 135.168 114.688 135.168 208.896zM204.8 304.64h-163.84v327.68h163.84v-327.68zM573.44 17.92l-327.68 245.76v409.6l327.68 204.8v-860.16zM614.4 316.928v319.488c53.248-32.768 90.112-90.112 90.112-159.744s-36.864-126.976-90.112-159.744zM1093.632 468.48c0-147.456-69.632-278.528-180.224-360.448l24.576-24.576c114.688 90.112 188.416 229.376 188.416 385.024s-73.728 294.912-188.416 385.024l-24.576-24.576c110.592-81.92 180.224-212.992 180.224-360.448zM905.216 468.48c0-98.304-40.96-184.32-106.496-245.76l24.576-24.576c69.632 65.536 114.688 163.84 114.688 266.24 0 106.496-45.056 200.704-114.688 266.24l-24.576-16.384c65.536-61.44 106.496-147.456 106.496-245.76z" horiz-adv-x="1126" />
<glyph unicode="&#xe604;" d="M106.667-64v0c-59.733 0-106.667 46.933-106.667 106.667v810.667c0 59.733 46.933 106.667 106.667 106.667v0c59.733 0 106.667-46.933 106.667-106.667v-810.667c0-59.733-46.933-106.667-106.667-106.667zM746.667-64v0c-59.733 0-106.667 46.933-106.667 106.667v810.667c0 59.733 46.933 106.667 106.667 106.667v0c59.733 0 106.667-46.933 106.667-106.667v-810.667c0-59.733-46.933-106.667-106.667-106.667z" horiz-adv-x="853" />
<glyph unicode="&#xe605;" d="M97.524 948.747l716.425-446.359c41.26-26.256 41.26-82.52 0-108.777l-716.425-446.359c-41.26-26.256-97.524 3.751-97.524 56.264v892.718c0 48.762 56.264 78.769 97.524 52.513z" horiz-adv-x="844" />
<glyph unicode="&#xe606;" d="M630.154 960h78.769v-1024h-78.769v1024zM0 960h78.769v-1024h-78.769v1024z" horiz-adv-x="709" />
<glyph unicode="&#xe607;" d="M61.44 842.24l547.84-394.24-547.84-394.24v788.48zM0 960v-1024l716.8 512-716.8 512z" horiz-adv-x="717" />
<glyph unicode="&#xe608;" d="M472.615 960c-147.036 0-288.821-68.267-388.595-183.795l-10.503 89.272c-5.251 21.005-21.005 31.508-42.010 31.508-21.005-5.251-31.508-21.005-31.508-42.010l26.256-178.544c0-5.251 0-10.503 5.251-15.754 0 0 0 0 0 0 0-5.251 5.251-5.251 5.251-10.503 0 0 0 0 0-5.251 0 0 0 0 0 0s0 0 0 0 0 0 0 0c10.503 0 15.754 0 21.005 0 0 0 0 0 0 0s5.251 0 5.251 0c0 0 5.251 0 5.251 0l178.544 31.508c21.005 5.251 31.508 21.005 31.508 42.010-5.251 21.005-26.256 31.508-47.262 31.508l-89.272-15.754c84.021 94.523 204.8 152.287 330.831 152.287 241.559 0 441.108-199.549 441.108-441.108s-199.549-441.108-441.108-441.108c-178.544 0-336.082 105.026-404.349 267.815-10.503 21.005-31.508 26.256-47.262 21.005-21.005-10.503-26.256-31.508-21.005-47.262 78.769-189.046 267.815-309.826 472.615-309.826 283.569 0 514.626 231.056 514.626 514.626s-231.056 509.374-514.626 509.374z" horiz-adv-x="987" />
<glyph unicode="&#xe609;" d="M1024 345.6v204.8h-114.215c-7.877 39.385-23.631 70.892-43.323 106.338l78.769 82.708-141.785 141.785-82.708-78.769c-31.508 19.692-66.954 35.446-106.338 43.323v114.215h-204.8v-114.215c-39.385-11.815-70.892-27.569-106.338-43.323l-82.708 78.769-141.785-141.785 78.769-82.708c-19.692-31.508-35.446-66.954-43.323-106.338h-114.215v-204.8h114.215c7.877-39.385 23.631-70.892 43.323-106.338l-78.769-82.708 141.785-141.785 82.708 78.769c31.508-19.692 66.954-35.446 106.338-43.323v-114.215h204.8v114.215c39.385 7.877 70.892 23.631 106.338 43.323l82.708-82.708 145.723 145.723-82.708 82.708c19.692 31.508 35.446 66.954 43.323 106.338h114.215zM874.338 156.554l-70.892-70.892-74.831 74.831c-47.262-35.446-102.4-59.077-161.477-66.954v-106.338h-102.4v106.338c-59.077 7.877-114.215 31.508-161.477 66.954l-74.831-74.831-70.892 70.892 74.831 74.831c-35.446 47.262-59.077 102.4-66.954 161.477h-114.215v102.4h106.338c7.877 59.077 31.508 114.215 66.954 161.477l-39.385 39.385-35.446 43.323 70.892 70.892 74.831-74.831c47.262 35.446 102.4 59.077 161.477 66.954v106.338h102.4v-106.338c59.077-7.877 114.215-31.508 161.477-66.954l74.831 74.831 70.892-70.892-74.831-74.831c35.446-47.262 59.077-102.4 66.954-161.477h106.338v-102.4h-98.462c-7.877-59.077-31.508-114.215-66.954-161.477l74.831-82.708zM512 601.6c86.646 0 153.6-66.954 153.6-153.6s-66.954-153.6-153.6-153.6c-86.646 0-153.6 66.954-153.6 153.6s66.954 153.6 153.6 153.6zM512 652.8c-114.215 0-204.8-90.585-204.8-204.8s90.585-204.8 204.8-204.8c114.215 0 204.8 90.585 204.8 204.8s-90.585 204.8-204.8 204.8v0z" />
<glyph unicode="&#xe60a;" d="M323.368 16.842h-53.895v808.421h53.895v-808.421zM592.842 73.432h-53.895v153.6h53.895v-153.6zM862.316 103.074h-53.895v843.453h53.895v-843.453zM323.368 49.179l-323.368-56.589v-56.589l323.368 56.589v56.589zM53.895 154.274h-53.895v-218.274l53.895 10.779v207.495zM538.947 78.821v-56.589l323.368 56.589v56.589l-323.368-56.589zM754.526 280.926l-215.579-37.726v-56.589l215.579 37.726v56.589zM215.579 194.695l-215.579-37.726v-56.589l215.579 37.726v56.589zM862.316 960l-215.579-37.726v-56.589l215.579 37.726v56.589zM269.474 854.905v-56.589l565.895 99.705v56.589l-565.895-99.705zM862.316 299.789l-161.684-29.642v-56.589l161.684 29.642v56.589zM296.421 639.326l431.158 78.147v53.895l-431.158-75.453v-56.589zM862.316 795.621l-188.632-35.032v-56.589l188.632 35.032v56.589zM323.368 213.558l-161.684-29.642v-56.589l161.684 29.642v56.589z" horiz-adv-x="862" />
<glyph unicode="&#xe60b;" d="M0-64v1024h1331.2v-1024h-1331.2zM1280 908.8h-1228.8v-921.6h1228.8v921.6zM256 243.2h537.6v-51.2h-537.6v51.2zM256 499.2h256v-51.2h-256v51.2zM870.4 243.2h204.8v-51.2h-204.8v51.2zM588.8 499.2h204.8v-51.2h-204.8v51.2zM870.4 499.2h204.8v-51.2h-204.8v51.2z" horiz-adv-x="1331" />
<glyph unicode="&#xe60c;" d="M1342.578 937.244c-34.133 34.133-79.644 34.133-113.778 0l-807.822-807.822-284.444 284.444c-34.133 34.133-79.644 34.133-113.778 0s-34.133-79.644 0-113.778l341.333-341.333c34.133-34.133 79.644-34.133 113.778 0l864.711 864.711c34.133 34.133 34.133 79.644 0 113.778z" horiz-adv-x="1365" />
<glyph unicode="&#xe60d;" d="M1560.381 943.746c-48.762 32.508-113.778 16.254-146.286-16.254l-617.651-747.683-617.651 747.683c-48.762 32.508-97.524 48.762-146.286 16.254-32.508-48.762-48.762-97.524-16.254-146.286l698.921-828.952c0 0 0 0 0 0s0 0 0 0 16.254 0 16.254-16.254c0 0 0 0 16.254 0s32.508 0 32.508 0c0 0 0 0 0 0s0 0 0 0c16.254 0 32.508 0 32.508 0s0 0 16.254 0c0 0 16.254 0 16.254 16.254 0 0 0 0 0 0s0 0 0 0l715.175 828.952c48.762 48.762 32.508 97.524 0 146.286z" horiz-adv-x="1593" />
<glyph unicode="&#xe60e;" d="M934.7 94.1l-24.5 23.8c109.6 79.8 178.8 207.6 178.8 351 0 97.4-32.1 186.8-86.8 259.3l23.2 23.2c59.9-79.5 96-176.8 96-282.5 0-151.2-73.1-287-186.7-374.8zM34.6-11.2l940.5 940.5 27.8-27.8-940.5-940.5-27.8 27.8zM573 868.1l-324.8-199.4v-268.9l-40.7-40.7v269.9h-162.7v-319.2h112.9l-39.7-39.8h-113.6v398.7h162.6l446.7 279.2v-182.8l-40.7-40.4v143.4zM573 30.2v269.3l40.7 40.7v-18.5c36.8 22.2 65.6 56.6 79.8 98l54.3 54.3c-1.3-90.4-57.6-164.6-133.8-200v-323.2l-227.1 162.2 31.8 31.8 154.3-114.6zM874.4 600.8l22.5 22.5c23.8-47.4 37.8-100.7 37.8-158 0-99.7-44.7-195.4-113.6-259.3l-24.5 23.8c64.9 59.9 105.6 143.7 105.6 239.4 0 47.2-9.9 91.5-27.8 131.6z" horiz-adv-x="1126" />
<glyph unicode="&#xe60f;" d="M0 662.4l38.4-75.2 121.6 134.4v-673.6h96v800h-83.2zM769.6 457.6l240 310.4h-88l-196.8-260.8-195.2 260.8h-89.6l241.6-312-256-328h89.6l209.6 278.4 211.2-278.4h88z" />
<glyph unicode="&#xe610;" d="M942.4 556.8l-4.8-4.8c0 0-406.4-404.8-481.6-481.6-36.8-36.8-88-62.4-137.6-67.2-59.2-6.4-115.2 14.4-161.6 60.8-57.6 57.6-60.8 123.2-54.4 166.4 8 52.8 35.2 107.2 73.6 145.6 16 16 43.2 43.2 76.8 76.8l27.2 27.2c121.6 120 324.8 321.6 363.2 364.8 30.4 32 70.4 51.2 107.2 49.6 30.4 0 59.2-14.4 83.2-43.2 78.4-89.6 11.2-171.2-11.2-193.6-46.4-46.4-286.4-288-403.2-403.2l-64-64c-16-16-32-19.2-43.2-20.8-14.4 0-27.2 4.8-36.8 14.4-8 8-12.8 19.2-11.2 32 1.6 16 9.6 32 24 46.4l307.2 305.6c11.2 11.2 11.2 30.4 0 41.6s-30.4 11.2-41.6 0l-307.2-304c-24-24-38.4-54.4-41.6-83.2-1.6-30.4 8-57.6 28.8-78.4 19.2-19.2 48-32 76.8-32 30.4 0 62.4 12.8 88 36.8l128 128c126.4 126.4 300.8 300.8 339.2 339.2 62.4 62.4 102.4 172.8 12.8 273.6-35.2 40-78.4 62.4-126.4 62.4-52.8 1.6-108.8-24-150.4-68.8-40-40-249.6-249.6-363.2-361.6-46.4-46.4-84.8-83.2-104-104-48-46.4-81.6-113.6-91.2-177.6-9.6-59.2-3.2-144 72-219.2 51.2-51.2 113.6-78.4 180.8-78.4 9.6 0 19.2 0 28.8 1.6 62.4 6.4 126.4 38.4 172.8 84.8 76.8 76.8 481.6 481.6 481.6 481.6l4.8 4.8-41.6 41.6z" />
<glyph unicode="&#xe611;" d="M366.4 582.4c36.8 0 72-16 92.8-44.8l3.2-4.8 36.8 22.4-3.2 8c-32 38.4-76.8 59.2-128 59.2-1.6 0-1.6 0-3.2 0-49.6 0-94.4-17.6-126.4-49.6s-49.6-75.2-49.6-124.8c0-100.8 75.2-174.4 177.6-174.4 51.2 0 94.4 20.8 128 60.8l4.8 6.4-38.4 22.4-3.2-4.8c-19.2-27.2-56-44.8-92.8-44.8-75.2 0-132.8 57.6-132.8 134.4 1.6 80 57.6 134.4 134.4 134.4zM796.8 358.4c-19.2-27.2-54.4-44.8-91.2-44.8-75.2 0-132.8 57.6-132.8 134.4 0 78.4 56 134.4 132.8 134.4 36.8 0 72-16 92.8-44.8l3.2-4.8 36.8 22.4-4.8 6.4c-32 38.4-76.8 59.2-128 59.2-1.6 0-1.6 0-3.2 0-49.6 0-94.4-17.6-126.4-49.6s-49.6-75.2-49.6-124.8c0-100.8 75.2-174.4 177.6-174.4 51.2 0 94.4 20.8 128 60.8l4.8 6.4-36.8 24-3.2-4.8zM1024 96h-1024v704h1024v-704zM32 128h960v640h-960v-640z" />
<glyph unicode="&#xe612;" d="M1008 870.4c-11.2 4.8-24 3.2-33.6-6.4l-382.4-358.4v334.4c0 12.8-4.8 24-16 30.4s-24 3.2-33.6-6.4l-424-396.8c-6.4-6.4-9.6-14.4-9.6-24s3.2-17.6 11.2-24l424-396.8c6.4-6.4 14.4-9.6 22.4-9.6 4.8 0 4.8 1.6 9.6 3.2 11.2 4.8 16 17.6 16 30.4v336l382.4-358.4c6.4-6.4 14.4-9.6 22.4-9.6 4.8 0 6.4 1.6 9.6 3.2 11.2 4.8 16 17.6 16 30.4v792c1.6 12.8-3.2 25.6-14.4 30.4zM528 120l-344 323.2 344 321.6v-644.8zM960 120l-344 323.2 344 321.6v-644.8zM32 883.2c-17.6 0-32-14.4-32-32v-755.2c0-17.6 14.4-32 32-32s32 14.4 32 32v755.2c0 17.6-14.4 32-32 32z" />
<glyph unicode="&#xe613;" d="M0 768h64v-832h-64v832zM960 768h64v-832h-64v832zM0 0h1024v-64h-1024v64zM0 768h1024v-64h-1024v64zM256 960h64v-192h-64v192zM256 960h512v-64h-512v64zM704 896h64v-128h-64v128zM512 512c88.2 0 160-71.8 160-160s-71.8-160-160-160-160 71.8-160 160 71.8 160 160 160zM512 576c-123.8 0-224-100.2-224-224s100.2-224 224-224 224 100.2 224 224-100.2 224-224 224v0zM896 576c0-35.346-28.654-64-64-64s-64 28.654-64 64c0 35.346 28.654 64 64 64s64-28.654 64-64z" />
<glyph unicode="&#xe614;" d="M160 960h64v-1024h-64v1024zM582.4 800l-278.4 160v-636.8l278.4 160 276.8 160-276.8 156.8zM548.8 539.2l-180.8-102.4v411.2l3.2-1.6 179.2-102.4 177.6-102.4-179.2-102.4z" />
<glyph unicode="&#xe615;" d="M16 25.6c11.2-4.8 24-3.2 33.6 6.4l382.4 358.4v-334.4c0-12.8 4.8-24 16-30.4s24-3.2 33.6 6.4l422.4 396.8c6.4 6.4 9.6 14.4 9.6 24s-3.2 17.6-11.2 24l-422.4 396.8c-6.4 6.4-14.4 9.6-22.4 9.6-4.8 0-4.8-1.6-9.6-3.2-11.2-4.8-16-17.6-16-30.4v-336l-382.4 360c-6.4 6.4-14.4 9.6-22.4 9.6-4.8 0-6.4-1.6-11.2-3.2-11.2-4.8-16-16-16-28.8v-795.2c0-12.8 4.8-25.6 16-30.4zM496 776l344-321.6-344-323.2v644.8zM64 776l344-321.6-344-323.2v644.8zM992 12.8c17.6 0 32 14.4 32 32v755.2c0 17.6-14.4 32-32 32s-32-14.4-32-32v-755.2c0-17.6 14.4-32 32-32z" />
<glyph unicode="&#xe616;" d="M512 960c-283.569 0-512-228.431-512-512s228.431-512 512-512 512 228.431 512 512-228.431 512-512 512zM512-8.862c-252.062 0-456.862 204.8-456.862 456.862s204.8 456.862 456.862 456.862 456.862-204.8 456.862-456.862-204.8-456.862-456.862-456.862zM543.508 479.508h31.508v63.015h-157.538v-63.015h63.015v-256h-63.015v-63.015h189.046v63.015h-63.015zM575.015 676.431c0-34.802-28.213-63.015-63.015-63.015s-63.015 28.213-63.015 63.015c0 34.802 28.213 63.015 63.015 63.015s63.015-28.213 63.015-63.015z" />
<glyph unicode="&#xe617;" d="M0 960v-448h448v448h-448zM384 576h-320v320h320v-320zM0 384v-448h448v448h-448zM384 0h-320v320h320v-320zM576 960v-448h448v448h-448zM960 576h-320v320h320v-320zM576 384v-448h448v448h-448zM960 0h-320v320h320v-320z" />
<glyph unicode="&#xe618;" d="M908.8 544c-9.6 48-24 75.2-43.2 107.2l81.6 83.2-145.6 145.6-84.8-81.6c-32 19.2-60.8 33.6-108.8 43.2v118.4h-192v-116.8c-48-9.6-75.2-24-108.8-43.2l-83.2 80-145.6-144 81.6-84.8c-19.2-32-33.6-59.2-44.8-107.2h-115.2v-208h115.2c9.6-32 24-68.8 43.2-100.8l-81.6-80 145.6-144 84.8 81.6c32-19.2 60.8-33.6 108.8-43.2v-113.6h192v113.6c48 9.6 76.8 24 108.8 43.2l83.2-81.6 145.6 145.6-81.6 78.4c19.2 32 33.6 68.8 44.8 100.8h115.2v208h-115.2zM976 400h-110.4c-8-64-32-118.4-67.2-164.8l75.2-76.8-72-73.6-76.8 75.2c-46.4-35.2-100.8-59.2-164.8-67.2v-108.8h-96v108.8c-64 8-118.4 32-164.8 67.2l-75.2-75.2-72 72 35.2 36.8 38.4 41.6c-35.2 46.4-59.2 100.8-67.2 164.8h-110.4v96h110.4c8 64 32 116.8 67.2 163.2l-40 40-35.2 36.8 72 72 36.8-36.8 41.6-38.4c44.8 35.2 99.2 59.2 163.2 67.2v112h96v-112c64-8 118.4-32 164.8-67.2l76.8 76.8 72-72-75.2-76.8c35.2-46.4 59.2-99.2 67.2-163.2h110.4v-97.6zM512 659.2c-113.6 0-204.8-91.2-204.8-204.8s91.2-204.8 204.8-204.8 204.8 91.2 204.8 204.8-91.2 204.8-204.8 204.8zM512 300.8c-84.8 0-153.6 68.8-153.6 153.6s68.8 153.6 153.6 153.6 153.6-68.8 153.6-153.6-68.8-153.6-153.6-153.6z" />
<glyph unicode="&#xe619;" d="M816 243.2c-46.4 0-89.6-20.8-116.8-56l-348.8 206.4c6.4 17.6 9.6 35.2 9.6 54.4s-3.2 36.8-9.6 54.4l348.8 206.4c27.2-33.6 70.4-56 116.8-56 84.8 0 152 68.8 152 153.6s-67.2 153.6-152 153.6v0c-84.8 0-152-68.8-152-153.6 0-19.2 3.2-36.8 9.6-54.4l-348.8-206.4c-27.2 33.6-70.4 56-116.8 56-83.2 0-152-68.8-152-153.6s67.2-153.6 152-153.6v0c46.4 0 89.6 22.4 116.8 56l348.8-206.4c-6.4-17.6-9.6-35.2-9.6-54.4 0-84.8 67.2-153.6 152-153.6v0c83.2 0 152 68.8 152 153.6s-67.2 153.6-152 153.6zM744 878.4c19.2 19.2 44.8 30.4 72 30.4v0c56 0 100.8-46.4 100.8-102.4s-44.8-102.4-100.8-102.4c-27.2 0-52.8 11.2-72 30.4s-30.4 44.8-28.8 72c0 27.2 9.6 52.8 28.8 72zM208 345.6c-27.2 0-52.8 11.2-72 30.4s-28.8 44.8-28.8 72 11.2 52.8 30.4 72c19.2 19.2 44.8 30.4 72 30.4 56 0 100.8-46.4 100.8-102.4-1.6-56-46.4-102.4-102.4-102.4zM816-12.8c-56 0-100.8 46.4-100.8 102.4s44.8 102.4 100.8 102.4 100.8-46.4 100.8-102.4-44.8-102.4-100.8-102.4z" />
</font>
</defs>
</svg>
