<?xml version="1.0" encoding="UTF-8"?>
<svg width="101px" height="106px" viewBox="0 0 101 106" version="1.1" xmlns="http://www.w3.org/2000/svg" xmlns:xlink="http://www.w3.org/1999/xlink">
    <!-- Generator: Sketch 46.2 (44496) - http://www.bohemiancoding.com/sketch -->
    <title>AddQ_hover</title>
    <desc>Created with Sketch.</desc>
    <defs>
        <linearGradient x1="74.0735658%" y1="11.8775868%" x2="31.4763564%" y2="89.6429564%" id="linearGradient-1">
            <stop stop-color="#FBFBFB" stop-opacity="0.31043365" offset="0%"></stop>
            <stop stop-color="#000000" stop-opacity="0.487318841" offset="100%"></stop>
        </linearGradient>
        <path d="M0,25.6154193 C0,22.6731289 2.56705701,19.9535618 5.21109287,18.48422 L36.9320131,1.10504959 C39.5807428,-0.368349865 43.08375,-0.368349865 45.7329491,1.10504959 L76.629163,18.4891794 C79.278362,19.958972 80.556962,22.6780884 80.556962,25.6154193 L80.556962,60.3791704 C80.556962,63.3219116 79.3947691,66.0365194 76.7512026,67.5108206 L45.7381123,84.8949504 C43.0889132,86.3683499 39.9341884,86.3683499 37.2849893,84.8949504 L5.15523627,67.51578 C2.50791472,66.0414788 0,63.3219116 0,60.3845807 L0,25.6154193 Z" id="path-2"></path>
        <filter x="-21.1%" y="-17.4%" width="142.2%" height="139.5%" filterUnits="objectBoundingBox" id="filter-3">
            <feMorphology radius="4" operator="dilate" in="SourceAlpha" result="shadowSpreadOuter1"></feMorphology>
            <feOffset dx="0" dy="2" in="shadowSpreadOuter1" result="shadowOffsetOuter1"></feOffset>
            <feGaussianBlur stdDeviation="4" in="shadowOffsetOuter1" result="shadowBlurOuter1"></feGaussianBlur>
            <feComposite in="shadowBlurOuter1" in2="SourceAlpha" operator="out" result="shadowBlurOuter1"></feComposite>
            <feColorMatrix values="0 0 0 0 0   0 0 0 0 0   0 0 0 0 0  0 0 0 0.24 0" type="matrix" in="shadowBlurOuter1"></feColorMatrix>
        </filter>
    </defs>
    <g id="Quiz" stroke="none" stroke-width="1" fill="none" fill-rule="evenodd">
        <g id="Quiz-Start" transform="translate(-897.000000, -356.000000)">
            <g id="Quiz" transform="translate(119.000000, 135.000000)">
                <g id="Main-Player" transform="translate(485.000000, 28.000000)">
                    <g id="AddQ_hover" transform="translate(303.000000, 201.000000)">
                        <g id="Shape">
                            <use fill="black" fill-opacity="1" filter="url(#filter-3)" xlink:href="#path-2"></use>
                            <use fill-opacity="0.8" fill="#676767" fill-rule="evenodd" xlink:href="#path-2"></use>
                            <use fill-opacity="0.119999997" fill="url(#linearGradient-1)" fill-rule="evenodd" xlink:href="#path-2"></use>
                            <path stroke="#FFFFFF" stroke-width="4" d="M-2,25.6154193 C-2,22.0872829 0.650444744,18.7305833 4.25011525,16.7302183 L35.9597779,-0.642737229 C39.2130238,-2.45240873 43.4513619,-2.45240873 46.7136863,-0.637980705 L77.5994475,16.740309 C80.8042741,18.5183673 82.556962,21.8327188 82.556962,25.6154193 L82.556962,60.3791704 C82.556962,64.2098897 80.9048129,67.4843749 77.7291287,69.2554296 L46.7102159,86.6428104 C43.4565471,88.4523965 39.5665545,88.4523965 36.333458,86.6540946 L4.18215187,69.2630941 C0.616889046,67.2775888 -2,63.913651 -2,60.3845807 L-2,25.6154193 Z"></path>
                        </g>
                        <path d="M39,41 L34,41 L34,41 C32.8954305,41 32,41.8954305 32,43 C32,44.1045695 32.8954305,45 34,45 L39,45 L39,50 C39,51.1045695 39.8954305,52 41,52 C42.1045695,52 43,51.1045695 43,50 L43,45 L48,45 C49.1045695,45 50,44.1045695 50,43 C50,41.8954305 49.1045695,41 48,41 L43,41 L43,36 L43,36 C43,34.8954305 42.1045695,34 41,34 L41,34 L41,34 C39.8954305,34 39,34.8954305 39,36 L39,41 Z" id="Combined-Shape" fill="#FFFFFF"></path>
                    </g>
                </g>
            </g>
        </g>
    </g>
</svg>