<?xml version="1.0" encoding="utf-8"?>
<!-- Generator: Adobe Illustrator 18.1.1, SVG Export Plug-In . SVG Version: 6.00 Build 0)  -->
<!DOCTYPE svg PUBLIC "-//W3C//DTD SVG 1.1//EN" "http://www.w3.org/Graphics/SVG/1.1/DTD/svg11.dtd">
<svg version="1.1" id="Layer_1" xmlns="http://www.w3.org/2000/svg" xmlns:xlink="http://www.w3.org/1999/xlink" x="0px" y="0px"
	 viewBox="0 0 128 128" enable-background="new 0 0 128 128" xml:space="preserve">
<g>
	<g>
		<path fill="#00DCFF" d="M113.4,29.3l-42-24.6c-3.6-2-8.4-2-12,0L16.4,29.3c-3.6,2.1-7.1,5.9-7.1,10.1v49.2c0,4.2,3.4,8,7,10.1
			l43.6,24.6c3.6,2.1,7.9,2.1,11.5,0l42.1-24.6c3.6-2.1,5.1-5.9,5.1-10.1V39.4C118.8,35.3,117.1,31.4,113.4,29.3z"/>
	</g>
</g>
<path fill="#FFFFFF" d="M92.5,62.9H65.1V35.5h-2.3v27.4H35.5v2.3h27.4v27.4h2.3V65.1h27.4V62.9z"/>
</svg>
