<?xml version="1.0" standalone="no"?>
<!DOCTYPE svg PUBLIC "-//W3C//DTD SVG 1.1//EN" "http://www.w3.org/Graphics/SVG/1.1/DTD/svg11.dtd" >
<svg xmlns="http://www.w3.org/2000/svg">
<metadata>Generated by IcoMoon</metadata>
<defs>
<font id="icomoon" horiz-adv-x="1024">
<font-face units-per-em="1024" ascent="960" descent="-64" />
<missing-glyph horiz-adv-x="1024" />
<glyph unicode="&#x20;" horiz-adv-x="512" d="" />
<glyph unicode="&#xe600;" glyph-name="uniE600" d="M458.56 943.104c29.312 29.376 53.312 19.456 53.312-22.016v-946.112c0-41.472-24-51.456-53.312-22.080l-275.776 275.776h-182.784v438.72h182.784l275.776 275.712z" />
<glyph unicode="&#xe601;" glyph-name="uniE601" d="M674.624 744l-75.264-85.632c49.152-55.872 76.224-130.752 76.224-209.856s-27.392-153.728-76.608-209.984h0.128l-0.256-0.256 75.776-85.888c71.616 81.6 107.52 188.544 107.648 295.808 0 107.136-35.904 214.144-107.648 295.808zM458.56 943.104c29.312 29.376 53.312 19.456 53.312-22.016v-946.112c0-41.472-24-51.456-53.312-22.080l-275.776 275.776h-182.784v438.72h182.784l275.776 275.712z" />
<glyph unicode="&#xe602;" glyph-name="uniE602" d="M674.624 744l-75.264-85.632c49.152-55.872 76.224-130.752 76.224-209.856s-27.392-153.728-76.608-209.984h0.128l-0.256-0.256 75.776-85.888c71.616 81.6 107.52 188.544 107.648 295.808 0 107.136-35.904 214.144-107.648 295.808zM825.152 960l-91.904-97.792c214.4-228.352 214.144-599.744-0.512-828.352l92.16-97.856c132.736 141.248 199.104 326.656 199.104 512 0 185.6-66.112 370.816-198.848 512zM458.56 943.104c29.312 29.376 53.312 19.456 53.312-22.016v-946.112c0-41.472-24-51.456-53.312-22.080l-275.776 275.776h-182.784v438.72h182.784l275.776 275.712z" />
<glyph unicode="&#xe603;" glyph-name="uniE603" d="M879.744 464.448h-302.976c-35.776 0-64.96 29.12-64.96 64.768v8.384c0 35.648 29.184 64.896 64.96 64.896h302.976c35.648 0 64.768-29.248 64.768-64.896v-8.384c0-35.648-29.12-64.768-64.768-64.768zM552.512 352.576v8.064c0 35.776 29.12 64.832 64.896 64.832h225.28c35.776 0 64.896-29.12 64.896-64.832v-8.064c0-35.776-29.12-64.96-64.896-64.96h-225.28c-35.776 0-64.896 29.184-64.896 64.96zM810.368 635.2h-256.128c-35.648 0-64.768 29.12-64.768 64.768v8.256c0 35.712 29.12 64.96 64.768 64.96h256.128c35.648 0 64.768-29.248 64.768-64.96v-8.256c0-35.648-29.12-64.768-64.768-64.768zM743.104 822.080h-176.64c-35.712 0-64.832 29.248-64.832 64.896v8.192c0 35.584 29.12 64.832 64.896 64.832h176.64c35.776 0 48.64-29.248 48.64-64.896v-8.192c-0.064-35.584-12.928-64.832-48.704-64.832zM534.336 799.552c-41.856-9.216-73.28-46.592-73.28-91.072v-8.384c0-39.872 25.216-73.92 60.416-87.232-22.976-17.152-38.208-44.416-38.208-75.264v-8.128c0-47.040 35.072-86.144 80.32-92.416-23.936-16.96-39.68-44.736-39.68-76.352v-8.064c0-51.52 41.92-93.376 93.376-93.376h13.248c14.72-18.944 7.744-14.080 19.52-28.992 41.024-52.032 144.768-185.216 93.632-248.256-51.264-62.976-92.096-64.448-172.352 15.168-32.96 32.64-30.208 32.32-88.32 96.768-50.752 56.32-145.28 194.048-345.408 245.44-4.224 0.64-8.256 1.536-12.16 3.136-0.256 0-0.384 0.128-0.576 0.128v0.064c-26.432 9.472-45.376 34.624-45.376 64.448v351.808c0 35.648 27.584 56.192 62.080 84.288 42.688 38.656 166.592 131.712 355.968 114.56-15.040-16.512-24.448-38.464-24.448-62.592v-8.128c0-40.128 25.6-74.368 61.248-87.552z" />
<glyph unicode="&#xe604;" glyph-name="uniE604" d="M793.6 328.512c-52.48 0-100.096-20.736-135.36-54.4l-235.136 128.256c2.24 12.032 3.52 24.384 3.52 36.992 0 14.336-1.536 28.096-4.416 41.536l239.424 137.792c34.88-31.744 81.152-51.264 132.032-51.264 108.352 0 196.224 87.872 196.224 196.16 0 108.416-87.872 196.288-196.224 196.288s-196.352-87.872-196.352-196.288c0-14.208 1.728-28.032 4.608-41.408l-239.424-137.856c-34.944 31.744-81.088 51.392-132.032 51.392-108.416 0-196.288-87.872-196.288-196.352 0-108.224 87.872-196.096 196.288-196.096 52.544 0 100.16 20.736 135.36 54.4l235.2-128.384c-2.24-12.032-3.648-24.256-3.648-36.992 0-108.352 87.872-196.224 196.224-196.224s196.224 87.872 196.224 196.224-87.808 196.224-196.224 196.224z" />
<glyph unicode="&#xe605;" glyph-name="uniE605" d="M1024 898.56l-61.44 61.44-450.56-450.56-450.56 450.56-61.44-61.44 450.56-450.56-450.56-450.56 61.44-61.44 450.56 450.56 450.56-450.56 61.44 61.44-450.56 450.56z" />
<glyph unicode="&#xe606;" glyph-name="uniE606" d="M1009.6 811.84l-157.248 138.816c-16.512 14.656-41.024 11.84-54.4-6.336l-429.312-581.312-168.064 166.976c-15.808 15.744-40.256 14.4-54.656-2.88l-135.872-163.52c-14.336-17.152-13.184-44.032 2.624-59.776l359.424-357.376c15.808-15.616 39.552-13.632 52.992 4.48l126.72 172.864c0.128 0.384 0.128 0.768 0.384 1.152l463.36 627.264c13.312 18.176 10.56 44.928-5.952 59.648z" />
<glyph unicode="&#xe607;" glyph-name="uniE607" d="M640 960h-256c-212.032 0-384-171.968-384-384v-256c0-212.032 171.968-384 384-384h256c212.032 0 384 171.968 384 384v256c0 212.032-171.968 384-384 384zM444.864 246.976c-33.152-28.48-77.632-42.752-133.504-42.752-63.36 0-113.92 21.632-151.616 64.768-37.696 43.392-56.576 103.104-56.576 179.584 0 77.312 18.944 137.472 56.768 180.608 37.824 43.008 89.024 64.576 153.472 64.576 52.8 0 94.784-12.288 126.016-36.8 31.168-24.576 53.504-61.952 67.2-112.256l-113.216-22.080c-3.712 24.448-12.352 42.816-25.92 55.104-13.376 12.352-30.848 18.56-52.416 18.56-28.48 0-51.328-10.624-68.288-32-17.088-21.312-25.536-56.96-25.536-106.944 0-55.552 8.704-94.72 25.92-117.76 17.344-22.848 40.512-34.368 69.632-34.368 21.824 0 39.552 6.656 53.504 20.032 13.888 13.376 23.616 36.352 29.376 69.12l112.768-20.736c-11.84-55.872-34.304-98.112-67.584-126.656zM855.872 246.976c-33.28-28.48-77.76-42.752-133.504-42.752-63.36 0-113.984 21.632-151.616 64.768-37.76 43.392-56.64 103.104-56.64 179.584 0 77.312 19.008 137.472 56.768 180.608 37.888 43.008 89.024 64.576 153.472 64.576 52.864 0 94.848-12.288 126.016-36.8 31.104-24.576 53.504-61.952 67.136-112.256l-113.152-22.080c-3.776 24.448-12.352 42.816-25.856 55.104-13.504 12.352-30.976 18.56-52.48 18.56-28.48 0-51.392-10.624-68.352-32-17.024-21.312-25.472-56.96-25.472-106.944 0-55.552 8.64-94.72 25.856-117.76 17.344-22.848 40.512-34.368 69.632-34.368 21.888 0 39.616 6.656 53.504 20.032s23.744 36.352 29.504 69.12l112.64-20.736c-11.84-55.872-34.176-98.112-67.456-126.656z" />
<glyph unicode="&#xe608;" glyph-name="uniE608" d="M993.152 756.672h-206.144l-46.336 92.544c0 17.024-13.76 30.848-30.784 30.848h-432.128c-17.088 0-30.848-13.824-30.848-30.848l-46.336-92.544h-169.728c-17.024 0-30.848-13.888-30.848-30.912v-678.912c0-17.152 13.824-30.848 30.848-30.848h962.24c17.088 0 30.848 13.76 30.848 30.848v678.912c0.064 17.024-13.76 30.912-30.784 30.912zM493.888 139.392c-136.384 0-246.912 110.528-246.912 246.976 0 136.32 110.528 246.784 246.912 246.784 136.32 0 246.784-110.528 246.784-246.784 0-136.384-110.528-246.976-246.784-246.976zM493.888 509.76c-68.224 0-123.52-55.232-123.52-123.392 0-68.288 55.232-123.584 123.52-123.584 68.16 0 123.456 55.232 123.456 123.584 0 68.16-55.296 123.392-123.456 123.392z" />
<glyph unicode="&#xe609;" glyph-name="uniE609" d="M973.632 895.040l-112.96-112.832c-90.56 99.008-220.736 161.088-365.376 161.088-273.536 0-495.296-221.824-495.296-495.296s221.76-495.296 495.296-495.296c247.808 0 452.48 182.144 488.704 419.968-0.128 17.92-13.952 25.408-27.008 25.408h-116.288c-20.8 0-27.456-11.648-32.64-34.112v0c-37.184-138.176-163.072-240.512-312.768-240.512-178.944 0-324.48 145.664-324.48 324.48 0 179.008 145.536 324.48 324.48 324.48 97.344 0 184.448-43.456 244.032-111.68l-138.432-138.368c-0.96-1.344-1.728-2.432-3.136-3.776-29.248-29.248-17.216-51.456 17.088-51.456h357.76c28.416 0 51.456 22.912 51.456 51.456v365.248c-3.008 28.416-24 37.056-50.432 11.2z" />
<glyph unicode="&#xe60a;" glyph-name="uniE60A" d="M224 576h-192c-17.728 0-32-14.336-32-32v-192c0-17.728 14.336-32 32-32h192c17.728 0 32 14.4 32 32v192c0 17.728-14.336 32-32 32zM224 192h-192c-17.728 0-32-14.4-32-32v-192c0-17.728 14.336-32 32-32h192c17.728 0 32 14.4 32 32v192c0 17.728-14.336 32-32 32zM608 576h-192c-17.728 0-32-14.336-32-32v-192c0-17.728 14.336-32 32-32h192c17.728 0 32 14.4 32 32v192c0 17.728-14.272 32-32 32zM608 192h-192c-17.728 0-32-14.4-32-32v-192c0-17.728 14.336-32 32-32h192c17.728 0 32 14.4 32 32v192c0 17.728-14.272 32-32 32zM992 576h-192c-17.728 0-32-14.336-32-32v-192c0-17.728 14.4-32 32-32h192c17.728 0 32 14.4 32 32v192c0 17.728-14.272 32-32 32zM992 192h-192c-17.728 0-32-14.4-32-32v-192c0-17.728 14.4-32 32-32h192c17.728 0 32 14.4 32 32v192c0 17.728-14.272 32-32 32zM224 960h-192c-17.728 0-32-14.336-32-32v-192c0-17.728 14.4-32 32-32h192c17.728 0 32 14.4 32 32v192c0 17.728-14.4 32-32 32zM608 960h-192c-17.728 0-32-14.336-32-32v-192c0-17.728 14.4-32 32-32h192c17.728 0 32 14.4 32 32v192c0 17.728-14.272 32-32 32zM992 960h-192c-17.728 0-32-14.336-32-32v-192c0-17.728 14.4-32 32-32h192c17.728 0 32 14.4 32 32v192c0 17.728-14.272 32-32 32z" />
<glyph unicode="&#xe60b;" glyph-name="uniE60B" d="M128 960l768-512.064-768-511.936v1024z" />
<glyph unicode="&#xe60c;" glyph-name="uniE60C" d="M643.008-64v1024h314.752v-1024h-314.752zM66.24 960h314.752v-1024h-314.752v1024z" />
<glyph unicode="&#xe60d;" glyph-name="uniE60D" d="M879.744 431.488h-303.104c-35.712 0-64.832-29.12-64.832-64.768v-8.32c0-35.584 29.12-64.768 64.832-64.768h303.104c35.52 0 64.768 29.184 64.768 64.768v8.32c0 35.648-29.248 64.768-64.768 64.768zM552.512 543.488v-8.192c0-35.712 29.12-64.832 64.896-64.832h225.28c35.648 0 64.768 29.12 64.768 64.832v8.192c0 35.776-29.12 64.832-64.768 64.832h-225.28c-35.776 0.064-64.896-29.056-64.896-64.832zM810.24 260.736h-255.872c-35.776 0-64.832-29.12-64.832-64.768v-8.256c0-35.712 29.056-64.832 64.832-64.832h256c35.648 0 64.768 29.12 64.768 64.832v8.256c0 35.648-29.12 64.768-64.896 64.768zM743.104 73.92h-176.64c-35.712 0-64.832-29.248-64.832-64.896v-8.128c0-35.712 29.12-64.96 64.832-64.96h176.64c35.776 0 48.64 29.248 48.64 64.96v8.128c0 35.648-12.864 64.896-48.64 64.896zM534.336 96.448c-41.984 9.152-73.408 46.528-73.408 91.136v8.256c0 40 25.28 73.984 60.544 87.296-23.040 17.024-38.272 44.416-38.272 75.2v8.256c0 47.040 35.008 86.080 80.256 92.352-23.872 16.96-39.616 44.672-39.616 76.288v8.128c0 51.52 41.984 93.376 93.44 93.376h13.12c14.976 18.88 7.872 14.080 19.648 28.992 41.024 52.096 144.768 185.28 93.504 248.256s-92.096 64.448-172.352-15.232c-32.832-32.512-30.208-32.256-88.32-96.64-50.752-56.384-145.28-194.112-345.344-245.504-4.288-0.576-8.32-1.536-12.224-3.136-0.192 0-0.384-0.064-0.576-0.064v-0.064c-26.432-9.472-45.312-34.752-45.312-64.512v-351.872c0-35.648 27.584-56.064 62.080-84.288 42.688-38.656 166.464-131.648 355.84-114.56-14.976 16.576-24.32 38.592-24.32 62.656v8.128c0.064 40.128 25.6 74.432 61.312 87.552z" />
<glyph unicode="&#xe60e;" glyph-name="uniE60E" d="M512 960c-282.752 0-512-229.216-512-512s229.216-512 512-512 512 229.216 512 512-229.216 512-512 512zM424.928 833.568h174.176v-174.176h-174.176v174.176zM686.176 62.432h-348.352v87.072h87.072v348.352h-87.072v87.072h261.28v-435.424h87.072v-87.104z" />
<glyph unicode="&#xe60f;" glyph-name="uniE60F" d="M896 320h-256v-256l82.752 82.752 210.752-210.752 90.496 90.496-210.752 210.752zM813.248 658.752l210.752 210.752-90.496 90.496-210.752-210.752-82.752 82.752v-256h256zM90.496 960l-90.496-90.496 210.752-210.752-82.752-82.752h256v256l-82.752-82.752zM210.752 237.248l-210.752-210.752 90.496-90.496 210.752 210.752 82.752-82.752v256h-256z" />
<glyph unicode="&#xe610;" glyph-name="uniE610" d="M941.248 109.248l-210.752 210.752-90.496-90.496 210.752-210.752-82.752-82.752h256v256zM82.752 786.752l210.752-210.752 90.496 90.496-210.752 210.752 82.752 82.752h-256v-256zM850.752 877.248l-210.752-210.752 90.496-90.496 210.752 210.752 82.752-82.752v256h-256zM384 229.504l-90.496 90.496-210.752-210.752-82.752 82.752v-256h256l-82.752 82.752z" />
<glyph unicode="&#xe611;" glyph-name="uniE611" d="M800 787.712c76.48 0 145.088 41.6 192 73.088v-595.648c-46.912-31.488-115.52-73.152-192-73.152-76.416 0-145.152 22.656-191.936 54.208-46.912 31.424-115.584 54.144-192 54.144-76.48 0-145.152-38.912-192-70.4v595.648c46.848 31.488 115.52 70.4 191.936 70.4s145.088-22.656 192-54.144c46.848-31.488 115.584-54.144 192-54.144zM96 960c35.328 0 64-28.672 64-64v-960h-128v960c0 35.328 28.672 64 64 64z" />
<glyph unicode="&#xe612;" glyph-name="uniE612" d="M512.064 960c-282.816 0-512.064-229.184-512.064-512 0-282.752 229.248-512 512.064-512 282.688 0 511.936 229.248 511.936 512 0 282.816-229.248 512-511.936 512zM373.44 460.352l-102.592 102.656-60.736-123.904c-3.008-3.008-7.232-3.776-11.136-2.176-3.776 1.6-6.080 5.184-6.080 9.344v306.752c0 5.632 4.48 10.112 10.048 10.112h299.072c4.16 0 7.744-2.432 9.344-6.272 1.536-3.84 0.768-8.064-2.176-11.136l-116.16-60.672 102.656-102.592c11.328-11.392 11.328-29.888 0-41.28l-81.152-80.96c-11.264-11.072-29.76-11.072-41.088 0.128zM794.112 151.744h-269.504c-4.16 0-7.808 2.432-9.408 6.272-1.536 3.904-0.704 8.064 2.176 11.008l86.656 60.8-102.464 102.528c-11.392 11.328-11.392 29.824 0 41.216l81.088 81.088c11.264 11.392 29.76 11.392 41.152 0l102.656-102.592 60.672 93.696c3.072 2.944 7.104 3.776 11.072 2.176 3.904-1.536 6.272-38.208 6.272-42.304v-243.712c-0.256-5.696-4.8-10.176-10.368-10.176z" />
<glyph unicode="&#xe613;" glyph-name="uniE613" d="M512 276.48l-171.008-172.224 166.912-168.256h-507.904v512l192.064-193.664 170.944 172.416 148.992-150.272zM512 619.456l171.008 172.288-166.912 168.256h507.904v-512l-192.064 193.664-171.008-172.48-148.928 150.272z" />
<glyph unicode="&#xe614;" glyph-name="uniE614" d="M833.28 894.144h-642.496l-192.768-191.168v-669.184c0-17.536 14.464-31.872 32.128-31.872h963.712c17.728 0 32.128 14.336 32.128 31.872v669.12l-192.704 191.232zM512 129.344l-321.216 254.912h192.704v191.168h257.024v-191.168h192.768l-321.28-254.912zM153.088 766.656l64.256 63.744h589.312l64.256-63.744h-717.824z" />
<glyph unicode="&#xe615;" glyph-name="uniE615" d="M1031.296 856.384l-176-175.808 184.704-184.704-480 0.128v480l184.704-184.768 175.808 176 110.784-110.848zM-7.296 39.616l175.936 175.744-184.64 184.64 480-0.128v-479.872l-184.64 184.704-175.808-176-110.848 110.912z" />
<glyph unicode="&#xe616;" glyph-name="uniE616" d="M1024 351.904v192.192l-146.784 24.448c-5.952 18.112-13.216 35.648-21.696 52.48l86.432 121.056-135.904 135.904-120.832-86.304c-16.928 8.576-34.528 15.904-52.768 21.888l-24.384 146.4h-192.192l-24.384-146.4c-18.208-6.016-35.84-13.344-52.768-21.888l-120.832 86.304-135.904-135.904 86.432-121.024c-8.448-16.832-15.744-34.368-21.696-52.48l-146.752-24.448v-192.192l147.136-24.512c5.952-17.952 13.216-35.36 21.632-52.032l-86.752-121.44 135.904-135.904 121.664 86.912c16.608-8.352 33.888-15.552 51.744-21.472l24.576-147.488h192.192l24.576 147.456c17.856 5.888 35.168 13.088 51.744 21.44l121.664-86.912 135.904 135.904-86.72 121.44c8.416 16.672 15.648 34.048 21.664 52.032l147.136 24.544zM512 320c-70.688 0-128 57.312-128 128s57.312 128 128 128 128-57.312 128-128-57.312-128-128-128z" />
<glyph unicode="&#xe617;" glyph-name="uniE617" d="M724.608 622.144h-35.264v-348.288h33.728c58.368 0 78.592 23.104 78.592 183.168 0 129.984-10.496 165.12-77.056 165.12zM640.064 960h-256.128c-212.032 0-383.936-171.968-383.936-384v-256c0-212.032 171.904-384 383.936-384h256.128c212.032 0 383.936 171.968 383.936 384.064v255.936c0 212.032-171.904 384-383.936 384zM393.344 181.12l-19.392 101.632h-127.808l-18.88-101.632h-129.92l136 533.696h157.12l132.992-533.696h-130.112zM737.344 181.12h-173.376v533.696h185.984c124.16 0 177.216-64.32 177.216-249.536-0.064-193.792-24.704-284.16-189.824-284.16zM308.096 617.664l-44.096-237.696h91.2l-45.568 237.696h-1.536z" />
<glyph unicode="&#xe618;" glyph-name="uniE618" d="M0 960h256v-256h-256zM384 896h640v-128h-640zM0 576h256v-256h-256zM384 512h640v-128h-640zM0 192h256v-256h-256zM384 128h640v-128h-640z" />
<glyph unicode="&#xe619;" glyph-name="uniE619" d="M413.376 56.672h-88.576c-23.328 168.448-156.352 301.472-324.8 324.864v88.064c216.896-24.224 388.96-196.16 413.376-412.96zM259.136 56.672h-88.928c-19.84 84.224-86.016 150.4-170.208 170.24v88.384c132.416-22.24 236.736-126.368 259.136-258.656zM101.664 56.672h-101.664v101.664c47.68-16.32 85.344-54.016 101.664-101.664zM489.472 116.48c-5.696 27.616-13.568 54.4-23.2 80.352h477.44v562.176l-803.136 0.352v-236.928c-25.888 9.664-52.704 17.472-80.32 23.2v293.696h963.776v-722.816h-534.528z" />
<glyph unicode="&#xe61a;" glyph-name="uniE61A" d="M966.4 748.8l-416-268.8c0 0-12.8-12.8-12.8-25.6s12.8-25.6 12.8-25.6l416-268.8c32-32 57.6-12.8 57.6 25.6v524.8c0 38.4-25.6 57.6-57.6 38.4zM473.6 748.8l-371.2-268.8c0 0-12.8-12.8-12.8-25.6v300.8h-89.6v-614.4h89.6v307.2c0-12.8 12.8-25.6 12.8-25.6l371.2-268.8c32-19.2 57.6-6.4 57.6 32v524.8c0 38.4-25.6 57.6-57.6 38.4z" />
<glyph unicode="&#xe61b;" glyph-name="uniE61B" d="M57.6 748.8l416-268.8c0 0 12.8-12.8 12.8-25.6s-12.8-25.6-12.8-25.6l-416-268.8c-32-32-57.6-12.8-57.6 25.6v524.8c0 38.4 25.6 57.6 57.6 38.4zM550.4 748.8l371.2-268.8c0 0 12.8-12.8 12.8-25.6v300.8h89.6v-614.4h-89.6v307.2c0-12.8-12.8-25.6-12.8-25.6l-371.2-268.8c-32-19.2-57.6-6.4-57.6 32v524.8c0 38.4 25.6 57.6 57.6 38.4z" />
<glyph unicode="&#xe61c;" glyph-name="uniE61C" d="M532.8 736h-89.6v-312h267.2v89.6h-177.6v222.4zM512 960c-233.6 0-422.4-188.8-422.4-422.4s422.4-601.6 422.4-601.6 422.4 368 422.4 601.6c0 233.6-188.8 422.4-422.4 422.4zM512 70.4c0 0-334.4 283.2-334.4 467.2s148.8 334.4 334.4 334.4c184 0 334.4-148.8 334.4-334.4-1.6-185.6-334.4-467.2-334.4-467.2z" />
<glyph unicode="&#xe61d;" glyph-name="uniE61D" d="M537.6 689.6h-108.8v-377.6h323.2v108.8h-214.4v268.8zM512 961.6c-283.2 0-512-230.4-512-513.6s228.8-513.6 512-513.6 512 230.4 512 513.6c0 283.2-228.8 513.6-512 513.6zM510.4 43.2c-222.4 0-403.2 180.8-403.2 404.8s180.8 404.8 403.2 404.8c224 0 404.8-180.8 404.8-404.8s-180.8-404.8-404.8-404.8z" />
<glyph unicode="&#xe61e;" glyph-name="uniE61E" d="M0 192h1024v-64h-1024v64zM0 480h1024v-64h-1024v64zM0 768h1024v-64h-1024v64z" />
<glyph unicode="&#xe61f;" glyph-name="uniE61F" d="M862.784 798.784c-193.76 193.696-507.776 193.696-701.536 0-193.696-193.696-193.696-507.712 0-701.408 193.76-193.76 507.776-193.76 701.536 0 193.568 193.696 193.568 507.712 0 701.408zM731.168 316.576l-87.68-87.68-131.488 131.488-131.424-131.488-87.808 87.68 131.616 131.488-131.616 131.552 87.808 87.68 131.424-131.488 131.488 131.552 87.68-87.744-131.424-131.552 131.456-131.488z" />
<glyph unicode="&#xe620;" glyph-name="uniE620" d="M995.424 25.536l-238.944 238.944c58.4 71.68 93.568 163.136 93.568 262.56 0 229.952-187.040 417.024-417.024 417.024s-417.024-187.040-417.024-417.088c0-229.952 187.040-417.024 417.024-417.024 99.52 0 190.912 35.104 262.688 93.568l238.88-238.944c8.384-8.384 19.36-12.512 30.432-12.512 11.040 0 21.952 4.16 30.368 12.576 16.736 16.864 16.736 44.096 0 60.896zM102.048 526.976c0 182.848 148.192 331.008 330.944 331.008 182.848 0 330.944-148.192 330.944-331.008 0-182.784-148.192-330.944-330.944-330.944-182.784 0.064-330.944 148.192-330.944 330.944z" />
<glyph unicode="&#xe621;" glyph-name="uniE621" d="M286.080-65.28h452.992v59.904h-452.992v-59.904zM-1.216 962.24v-796.288h1024v796.288h-1024zM398.912 357.696v438.72l367.296-219.392-367.296-219.328z" />
<glyph unicode="&#xe622;" glyph-name="uniE622" d="M512 960c-283.2 0-512-228.8-512-512s228.8-512 512-512 512 228.8 512 512c0 283.2-228.8 512-512 512zM512 83.2c-201.6 0-364.8 163.2-364.8 364.8s163.2 364.8 364.8 364.8 364.8-163.2 364.8-364.8-163.2-364.8-364.8-364.8z" />
<glyph unicode="&#xe623;" glyph-name="uniE623" d="M512 960c283.2 0 512-228.8 512-512s-228.8-512-512-512c-283.2 0-512 228.8-512 512s228.8 512 512 512z" />
<glyph unicode="&#xe624;" glyph-name="uniE624" d="M133.12 673.28c-15.36 15.36-35.84 15.36-51.2 0s-15.36-35.84 0-51.2l404.48-399.36c15.36-15.36 35.84-15.36 51.2 0l404.48 399.36c15.36 15.36 15.36 35.84 0 51.2s-35.84 15.36-51.2 0l-378.88-363.52c0 0-378.88 363.52-378.88 363.52z" />
<glyph unicode="&#xe625;" glyph-name="uniE625" d="M1003.52 468.48h-81.92c-10.24 204.8-174.080 363.52-373.76 373.76v97.28c0 10.24-10.24 20.48-20.48 20.48s-20.48-10.24-20.48-20.48v-97.28c-199.68-10.24-363.52-174.080-373.76-373.76h-107.52c-10.24 0-20.48-10.24-20.48-20.48s10.24-20.48 20.48-20.48h107.52c10.24-199.68 174.080-363.52 373.76-373.76v-97.28c0-10.24 10.24-20.48 20.48-20.48s20.48 10.24 20.48 20.48v97.28c204.8 10.24 363.52 174.080 373.76 373.76h81.92c10.24 0 20.48 10.24 20.48 20.48s-10.24 20.48-20.48 20.48zM762.88 427.52h112.64c-10.24-179.2-153.6-322.56-332.8-332.8v102.4c0 10.24-10.24 20.48-20.48 20.48s-20.48-10.24-20.48-20.48v-102.4c-179.2 10.24-317.44 153.6-332.8 332.8h92.16c10.24 0 20.48 10.24 20.48 20.48s-10.24 20.48-20.48 20.48h-92.16c10.24 179.2 153.6 322.56 332.8 332.8v-102.4c0-10.24 10.24-20.48 20.48-20.48s20.48 10.24 20.48 20.48v102.4c179.2-10.24 322.56-153.6 332.8-332.8h-112.64c-10.24 0-20.48-10.24-20.48-20.48s10.24-20.48 20.48-20.48z" />
<glyph unicode="&#xe626;" glyph-name="uniE626" d="M583.68 647.68h-563.2c-10.24 0-20.48-10.24-20.48-20.48s10.24-20.48 20.48-20.48h563.2c10.24 0 20.48 10.24 20.48 20.48s-10.24 20.48-20.48 20.48zM583.68 407.040h-563.2c-10.24 0-20.48-10.24-20.48-20.48s10.24-20.48 20.48-20.48h563.2c10.24 0 20.48 10.24 20.48 20.48s-10.24 20.48-20.48 20.48zM583.68 166.4h-563.2c-10.24 0-20.48-10.24-20.48-20.48s10.24-20.48 20.48-20.48h563.2c10.24 0 20.48 10.24 20.48 20.48s-10.24 20.48-20.48 20.48zM926.72 811.52v0 0l-102.4-97.28 30.72-30.72 51.2 51.2v-650.24h40.96v650.24l51.2-51.2 30.72 30.72-102.4 97.28z" />
<glyph unicode="&#xe627;" glyph-name="uniE627" horiz-adv-x="862" d="M323.368 16.842h-53.894v808.422h53.894v-808.422zM592.842 73.432h-53.894v153.6h53.894v-153.6zM862.316 103.074h-53.894v843.452h53.894v-843.452zM323.368 49.178l-323.368-56.59v-56.588l323.368 56.588v56.588zM53.896 154.274h-53.896v-218.274l53.896 10.778v207.496zM538.948 78.822v-56.59l323.368 56.588v56.588l-323.368-56.588zM754.526 280.926l-215.58-37.726v-56.588l215.578 37.726v56.59zM215.58 194.696l-215.58-37.726v-56.588l215.58 37.726v56.59zM862.316 960l-215.578-37.726v-56.59l215.578 37.726v56.588zM269.474 854.904v-56.588l565.894 99.704v56.59l-565.894-99.706zM862.316 299.788l-161.684-29.642v-56.588l161.684 29.642v56.588zM296.42 639.326l431.158 78.146v53.896l-431.158-75.454v-56.588zM862.316 795.62l-188.632-35.032v-56.588l188.632 35.032v56.59zM323.368 213.558l-161.684-29.642v-56.588l161.684 29.642v56.588z" />
<glyph unicode="&#xe628;" glyph-name="new-tab" d="M192 896v-768h768v768h-768zM896 192h-640v640h640v-640zM128 64v672l-64 64v-800h800l-64 64h-672zM352 704l160-160-192-192 96-96 192 192 160-160v416z" />
<glyph unicode="&#xe900;" glyph-name="settings" d="M494.431 331.7c-36.95 0-69.020 13.092-96.209 39.276s-40.784 58.226-40.784 96.124c0 37.898 13.246 69.94 39.739 96.124s58.911 39.276 97.255 39.276c38.344 0 70.762-13.092 97.255-39.276s39.739-58.226 39.739-96.124c0-37.898-13.595-69.94-40.784-96.124s-59.259-39.276-96.209-39.276v0zM789.333 555.99c-2.092 8.269-4.706 16.537-7.843 24.806s-7.495 16.537-13.072 24.806c8.366 11.714 17.429 23.601 27.19 35.659s18.823 24.634 27.19 37.726c2.788 3.445 4.183 7.235 4.183 11.37s-1.395 7.924-4.183 11.369c-11.852 15.159-25.447 30.491-40.784 45.995s-29.63 28.768-42.876 39.793c-3.486 3.445-7.495 5.168-12.026 5.168s-8.54-1.723-12.026-5.168l-76.34-55.814c-6.972 3.445-14.466 6.718-22.484 9.819s-16.209 6.374-24.575 9.819l-13.595 96.124c0 4.823-1.743 8.785-5.229 11.887s-8.366 4.651-14.64 4.651h-117.124c-4.88 0-9.063-1.55-12.549-4.651s-5.926-7.063-7.32-11.887c-3.486-15.159-6.275-30.835-8.366-47.029s-3.834-32.558-5.229-49.096c-8.366-3.445-16.558-6.374-24.575-8.785s-15.512-6.029-22.484-10.853l-73.203 55.814c-2.092 2.067-4.532 3.79-7.32 5.168s-4.88 2.067-6.275 2.067c-8.366 0-25.621-13.437-51.765-40.31s-42.353-44.444-48.627-52.713c-3.486-4.823-5.229-8.613-5.229-11.369s1.743-6.546 5.229-11.37c9.76-11.714 19.172-23.428 28.235-35.142s18.475-24.462 28.235-38.243c-3.486-8.269-6.797-15.848-9.935-22.739s-6.449-14.47-9.935-22.739l-97.255-13.437c-4.88 0-8.889-2.067-12.026-6.202s-4.706-8.613-4.706-13.437v-112.661c0-4.823 1.569-8.958 4.706-12.403s7.146-5.857 12.026-7.235l94.118-16.537c1.394-8.269 4.183-16.537 8.366-24.806s8.017-16.537 11.503-24.806c-8.366-11.714-17.255-23.6-26.667-35.659s-18.301-24.634-26.667-37.726c-3.486-3.445-4.88-7.235-4.183-11.37s2.092-7.924 4.183-11.369c11.852-15.159 25.447-30.491 40.784-45.995s30.675-30.146 46.013-43.928c3.486-2.756 7.495-4.307 12.026-4.651s8.192 0.172 10.98 1.55l74.248 56.848c8.366-3.445 16.209-6.891 23.529-10.336s15.163-6.891 23.529-10.336l12.549-95.090c0-3.445 2.092-7.063 6.274-10.853s9.063-5.685 14.641-5.685h117.124c4.88 0 8.889 1.378 12.026 4.134s5.752 6.891 7.843 12.403c3.486 14.47 6.274 29.802 8.366 45.995s4.88 32.558 8.366 49.096c8.366 3.445 16.558 6.891 24.575 10.336s15.512 6.891 22.484 10.336l73.203-56.848c1.394-1.378 3.486-2.239 6.274-2.584s5.229-0.517 7.32-0.517c8.366 0 25.447 13.437 51.242 40.31s42.179 45.478 49.15 55.814c1.394 0 1.568 1.55 0.523 4.651s-2.266 7.063-3.66 11.886c-10.458 13.092-20.044 25.495-28.758 37.209s-18.3 23.428-28.758 35.142c3.486 6.891 6.972 14.298 10.458 22.222s6.623 16.021 9.412 24.289l94.118 10.336c4.88 0 8.889 1.895 12.026 5.685s4.706 7.407 4.706 10.853v115.762c0 2.756-1.569 6.202-4.706 10.336s-7.146 7.235-12.026 9.302l-89.935 25.84z" />
<glyph unicode="&#xe901;" glyph-name="share" d="M692 319.5c-16.667-9-29.667-20.5-39-34.5l-291 141c0 2.667 0.5 5.667 1.5 9s1.5 6.667 1.5 10c0 3.333-0.167 7-0.5 11s-1.167 7.666-2.5 11l288 141c10.667-14.667 24-26.333 40-35s34.667-13 56-13c33.333 0 61.333 11.667 84 35s34 51 34 83c0 32-11.667 60.333-35 85s-51 37-83 37c-32 0-59.833-11.667-83.5-35s-35.5-51-35.5-83c0-5.333 0.167-10.334 0.5-15s1.167-9.333 2.5-14l-291-138c-9.333 11.333-20.5 20-33.5 26s-27.5 9-43.5 9c-28.667 0-52.833-9.833-72.5-29.5s-29.5-43.833-29.5-72.5c0-28.667 9.833-52.833 29.5-72.5s43.833-29.5 72.5-29.5c16 0 30.833 3.5 44.5 10.5s24.5 16.167 32.5 27.5l291-141c-1.333-4.667-2.167-9.333-2.5-14s-0.5-9.667-0.5-15c0-33.333 11.833-61.333 35.5-84s51.5-34 83.5-34c32 0 59.667 11.667 83 35s35 51 35 83c0 32-11.667 59.833-35 83.5s-51 35.5-83 35.5c-19.333 0-37.333-4.5-54-13.5z" />
<glyph unicode="&#xe902;" glyph-name="more" d="M592 712c0-24.444-8.556-45.222-25.667-62.333s-37.889-25.667-62.333-25.667c-24.444 0-45.222 8.556-62.333 25.667s-25.667 37.889-25.667 62.333c0 24.444 8.556 45.222 25.667 62.333s37.889 25.667 62.333 25.667c24.444 0 45.222-8.556 62.333-25.667s25.667-37.889 25.667-62.333v0zM592 448c0-24.444-8.556-45.222-25.667-62.333s-37.889-25.667-62.333-25.667c-24.444 0-45.222 8.556-62.333 25.667s-25.667 37.889-25.667 62.333c0 24.444 8.556 45.222 25.667 62.333s37.889 25.667 62.333 25.667c24.444 0 45.222-8.556 62.333-25.667s25.667-37.889 25.667-62.333v0zM592 184c0-24.444-8.556-45.222-25.667-62.333s-37.889-25.667-62.333-25.667c-24.444 0-45.222 8.556-62.333 25.667s-25.667 37.889-25.667 62.333c0 24.444 8.556 45.222 25.667 62.333s37.889 25.667 62.333 25.667c24.444 0 45.222-8.556 62.333-25.667s25.667-37.889 25.667-62.333v0z" />
<glyph unicode="&#xe903;" glyph-name="chromecast" d="M64 307c-9.333 0-17-3.333-23-10s-9-14-9-22c0-9.333 3.333-17 10-23s14-9 22-9c14.667 0 28.833-3 42.5-9s26.167-14.667 37.5-26c9.333-9.333 17-21 23-35s9-29 9-45c0-9.333 3.333-17 10-23s14-9 22-9c8 0 15 3.5 21 10.5s9.667 15.167 11 24.5c0 24-4.5 46.833-13.5 68.5s-21.5 40.5-37.5 56.5c-18 16-37.333 28.5-58 37.5s-43 13.5-67 13.5v0zM64 454c-9.333 0-17-3.333-23-10s-9-14-9-22c0-9.333 3.333-17 10-23s14-9 22-9c33.333 0 65.667-6.333 97-19s59.667-31.667 85-57c26-26 45.333-54.667 58-86s19-64.667 19-100c0-9.333 3.333-17 10-23s14-9 22-9c8 0 14.833 3.667 20.5 11s8.5 16.333 8.5 27c0 43.333-7.833 84.5-23.5 123.5s-38.833 73.833-69.5 104.5c-30 30-64.5 52.833-103.5 68.5s-80.167 23.5-123.5 23.5v0zM109 134c0 10.667-3.833 19.833-11.5 27.5s-16.833 11.5-27.5 11.5c-10.667 0-19.667-3.833-27-11.5s-11-16.833-11-27.5c0-10.667 3.667-19.667 11-27s16.333-11 27-11c10.667 0 19.833 3.667 27.5 11s11.5 16.333 11.5 27v0zM960 768h-896c-8 0-15.333-3-22-9s-10-13.667-10-23v-160c0-8 3.333-15.333 10-22s14-10 22-10c8 0 15.333 3.333 22 10s10 14 10 22v128h832v-544h-368c-8 0-15.333-3.333-22-10s-10-14-10-22c0-8 3.333-15.333 10-22s14-10 22-10h400c8 0 15.333 3.333 22 10s10 14 10 22v608c0 9.333-3.333 17-10 23s-14 9-22 9v0z" />
<glyph unicode="&#xe904;" glyph-name="airplay" d="M520.667 472.857c-5.778 5.143-12.711 7.714-20.8 7.714s-14.155-3.429-18.2-10.286l-191.533-274.286c-6.933-6.857-8.378-14.571-4.333-23.143s10.978-12.857 20.8-12.857h424.667c9.822 0 17.189 4.714 22.1 14.143s3.9 17.571-3.033 24.429l-229.667 274.286zM900.267 736h-776.533c-8.089 0-14.733-2.571-19.933-7.714s-7.8-11.714-7.8-19.714v-438.857c0-8 2.6-14.571 7.8-19.714s11.844-7.714 19.933-7.714h127.4c2.889 0 5.778 0.571 8.667 1.714s5.489 2.286 7.8 3.429l50.267 49.714h-166.4v384h721.067v-384h-166.4l50.267-49.714c2.311-1.143 4.911-2.286 7.8-3.429s5.778-1.714 8.667-1.714h127.4c8.089 0 14.733 2.571 19.933 7.714s7.8 11.714 7.8 19.714v438.857c0 8-2.6 14.572-7.8 19.714s-11.844 7.714-19.933 7.714v0z" />
<glyph unicode="&#xe905;" glyph-name="exitfullscreen" d="M242.568 194.552c19.618-19.583 51.416-19.583 70.998 0 19.629 19.583 19.629 51.381 0 70.998l-142.196 142.196h610.443c27.722 0 50.186 22.464 50.186 50.186s-22.464 50.186-50.186 50.186h-610.443l142.196 142.196c19.629 19.583 19.629 51.381 0 70.998-9.791 9.791-22.639 14.687-35.499 14.687s-25.708-4.896-35.499-14.687l-227.881-227.881c-19.583-19.583-19.583-51.369 0-70.998l227.881-227.881z" />
<glyph unicode="&#xe906;" glyph-name="fullscreen" d="M470.699 540.532l-136.258-138.053h85.475c22.388 0 40.699-18.568 40.699-41.253 0-22.672-18.312-41.226-40.699-41.226h-191.281c-2.045 0-2.045 0-4.076 2.059-2.032 0-2.032 0-4.076 2.059-2.032 0-2.032 2.059-4.063 2.059s-2.032 2.059-4.063 2.059c-4.076 2.072-8.153 6.189-12.216 12.378l-2.032 2.059c0 2.059-2.032 2.059-2.032 4.131 0 2.059 0 2.059-2.045 4.117 0 2.072 0 2.072-2.032 4.131v193.819c0 22.685 18.312 41.24 40.699 41.24s40.699-18.555 40.699-41.24v-86.596l136.258 138.053c20.343 14.437 44.763 14.437 61.043-2.059s16.28-41.24 0-57.735zM553.311 739.531l136.122 137.916h-85.551c-22.408 0-40.735 18.584-40.735 41.29 0 22.692 18.328 41.263 40.735 41.263h191.449c2.047 0 2.047 0 4.080-2.061 2.034 0 2.034 0 4.080-2.061 2.034 0 2.034-2.061 4.067-2.061s2.034-2.061 4.067-2.061c4.080-2.074 8.16-6.195 12.227-12.389l2.034-2.061c0-2.061 2.034-2.061 2.034-4.134 0-2.061 0-2.061 2.047-4.121 0-2.074 0-2.074 2.034-4.134v-193.992c0-22.705-18.328-41.276-40.735-41.276s-40.735 18.571-40.735 41.276v86.674l-136.122-137.916c-20.361-14.45-44.802-14.45-61.096 2.061s-16.294 41.276 0 57.787z" />
<glyph unicode="&#xe907;" glyph-name="play" d="M256 44.209c0-19.635 5.657-32.93 16.971-39.884s24.933-5.522 40.857 4.295l622.286 386.564c15.924 9.818 23.886 21.885 23.886 36.202s-7.962 26.384-23.886 36.202l-622.286 387.791c-15.924 9.817-29.543 11.249-40.857 4.295s-16.971-20.249-16.971-39.884v-775.583z" />
<glyph unicode="&#xe908;" glyph-name="pause" d="M240 896c61.856 0 112-50.144 112-112v-672c0-61.856-50.144-112-112-112s-112 50.144-112 112v672c0 61.856 50.144 112 112 112zM784 896c61.856 0 112-50.144 112-112v-672c0-61.856-50.144-112-112-112s-112 50.144-112 112v672c0 61.856 50.144 112 112 112z" />
<glyph unicode="&#xe909;" glyph-name="backwards" d="M171.54 467.948c-7.693-7.447-11.54-16.225-11.54-26.332s3.847-18.884 11.54-26.332l242.349-210.655c13.189-12.767 27.477-15.161 42.864-7.181s23.081 21.012 23.081 39.099v426.097c0 18.086-7.968 30.587-23.905 37.503s-29.95 4.522-42.040-7.181l-242.349-225.017zM809.561 692.966l-242.349-225.017c-7.694-7.447-11.54-16.225-11.54-26.332s3.847-18.884 11.54-26.332l242.349-212.25c13.189-11.703 27.477-14.097 42.864-7.181s23.081 19.416 23.081 37.503v429.288c0 18.086-7.968 30.587-23.905 37.503s-29.95 4.522-42.040-7.181v0z" />
<glyph unicode="&#xe90a;" glyph-name="forwards" d="M884.622 430.381c7.585 7.378 11.378 16.338 11.378 26.878s-3.793 19.5-11.378 26.878l-240.559 210.281c-13.003 10.54-27.090 12.385-42.26 5.534s-22.756-19.236-22.756-37.155v-426.886c0-16.865 7.585-28.459 22.756-34.783s29.257-4.216 42.26 6.324l240.559 222.929zM253.968 207.451l240.559 222.929c7.585 7.378 11.378 16.338 11.378 26.878s-3.793 19.5-11.378 26.878l-240.559 210.281c-13.003 10.54-27.090 12.385-42.26 5.534s-22.756-19.236-22.756-37.155v-426.886c0-16.865 7.585-28.459 22.756-34.783s29.257-4.216 42.26 6.324v0z" />
<glyph unicode="&#xe90b;" glyph-name="richmedia" d="M96 768h128v64h-160c-9.333 0-17-3-23-9s-9-13.667-9-23v-160h64v128zM992 64v160h-64v-128h-128v-64h160c9.333 0 17 3 23 9s9 13.667 9 23v0zM512 317c-36.667 0-68.167 12.667-94.5 38s-39.5 56.333-39.5 93c0 36.667 13.167 67.667 39.5 93s57.833 38 94.5 38c36.667 0 68.167-12.667 94.5-38s39.5-56.333 39.5-93c0-36.667-13.167-67.667-39.5-93s-57.833-38-94.5-38v0zM864 448v1c0 0.667 0 0.333 0-1v0c0 3.333-0.667 6.5-2 9.5s-2.667 5.167-4 6.5c-11.333 12.667-23.5 24.833-36.5 36.5s-26.5 22.833-40.5 33.5c-28.667 22.667-59.667 43-93 61s-68.667 31-106 39c-20.667 4.667-41.833 7.167-63.5 7.5s-43.167-1.167-64.5-4.5c-18.666-3.333-37.5-8.167-56.5-14.5s-37.5-14.5-55.5-24.5c-26.667-12.667-52.667-28.166-78-46.5s-49.333-37.833-72-58.5c-4.667-3.333-8.833-7.333-12.5-12s-6.833-9.333-9.5-14c-5.333-6-8-12.166-8-18.5s2.667-11.833 8-16.5c10.667-12.667 22.5-24.833 35.5-36.5s26.5-22.833 40.5-33.5c29.333-22.667 60.667-43 94-61s68.333-31 105-39c20.667-4.667 42-7.167 64-7.5s43.333 1.167 64 4.5c19.333 3.333 38.333 8.167 57 14.5s37 14.5 55 24.5c27.333 12.667 53.666 28.167 79 46.5s49 37.833 71 58.5c4.667 3.333 8.833 7.333 12.5 12s7.167 9.333 10.5 14c1.333 1.333 2.666 3.333 4 6s2 5 2 7v0 0 0 0 6zM554 448c0 27.333-13.833 41-41.5 41s-40.5-13.667-38.5-41c0-27.333 13.333-41 40-41s40 13.667 40 41v0z" />
<glyph unicode="&#xe90c;" glyph-name="info" d="M512 864c-57.056 0-110.861-11.014-161.417-33.041s-94.611-51.82-132.167-89.375c-37.556-37.555-67.347-81.611-89.375-132.167s-33.042-104.361-33.042-161.417c0-57.056 11.014-110.861 33.042-161.417s51.819-94.611 89.375-132.167c37.556-37.556 81.611-67.347 132.167-89.375s104.361-33.042 161.417-33.042c57.056 0 110.861 11.014 161.417 33.042s94.611 51.819 132.167 89.375c37.556 37.556 67.347 81.611 89.375 132.167s33.041 104.361 33.041 161.417c0 57.056-11.014 110.861-33.041 161.417s-51.82 94.611-89.375 132.167c-37.555 37.556-81.611 67.347-132.167 89.375s-104.361 33.041-161.417 33.041v0zM512 693.917c17.333 0 31.417-5.958 42.25-17.875s16.25-25.458 16.25-40.625c0-17.333-5.778-31.597-17.333-42.792s-25.278-16.792-41.167-16.792c-17.333 0-31.417 5.958-42.25 17.875s-16.25 25.819-16.25 41.708c0 15.167 5.417 28.708 16.25 40.625s24.917 17.875 42.25 17.875v0zM567.25 219.417c-8.666-5.056-18.417-8.667-29.25-10.833s-20.583-3.25-29.25-3.25c-12.278 0-23.472 2.347-33.583 7.042s-18.778 10.292-26 16.792c-6.5 7.222-11.556 14.444-15.167 21.667s-5.417 15.167-5.417 23.833v20.583c0 3.611 0.542 7.764 1.625 12.458s1.625 8.847 1.625 12.458l24.917 89.917c1.444 5.056 2.528 9.389 3.25 13s1.806 7.222 3.25 10.833c0 3.611 0.542 7.222 1.625 10.833s1.625 6.861 1.625 9.75c0 5.778-0.722 10.833-2.167 15.167s-2.889 7.583-4.333 9.75c-1.444 1.444-4.694 2.889-9.75 4.333s-11.194 2.167-18.417 2.167c-2.889 0-4.514 5.056-4.875 15.167s7.042 17.694 22.208 22.75c7.222 2.167 14.806 3.43 22.75 3.792s15.528 0.542 22.75 0.542c12.278 0 23.292-1.625 33.041-4.875s17.153-7.403 22.208-12.458c7.222-5.778 12.458-12.639 15.709-20.583s4.875-16.25 4.875-24.917v-20.583c0-5.056-0.542-9.75-1.625-14.083s-1.625-9.028-1.625-14.083l-23.833-89.917c-2.167-3.611-3.43-7.764-3.792-12.458s-1.625-8.486-3.792-11.375c0-5.778-0.542-10.292-1.625-13.542s-1.625-5.958-1.625-8.125c0-5.056 0.722-9.931 2.167-14.625s3.25-7.764 5.417-9.208c2.889-1.444 6.5-2.889 10.833-4.333s9.75-2.167 16.25-2.167c3.611 0 7.222 0.903 10.833 2.708s6.861 1.986 9.75 0.542c7.222-3.611 8.306-9.028 3.25-16.25s-13-13.361-23.833-18.417v0z" />
<glyph unicode="&#xe90d;" glyph-name="cc" d="M512 768c102.4 0 186.667-4.892 252.8-14.676s118.4-27.255 156.8-52.414c38.4-25.158 65.067-59.402 80-102.731s22.4-98.538 22.4-165.628c0-67.090-7.467-122.299-22.4-165.628s-41.6-77.572-80-102.731c-38.4-25.159-90.667-42.63-156.8-52.414s-150.4-14.676-252.8-14.676c-102.4 0-186.667 4.892-252.8 14.676s-118.4 27.255-156.8 52.414c-38.4 25.159-65.067 59.402-80 102.731s-22.4 98.538-22.4 165.628c0 67.090 7.467 122.299 22.4 165.628s41.6 77.572 80 102.731c38.4 25.158 90.667 42.63 156.8 52.414s150.4 14.676 252.8 14.676zM367.86 271.537c66.651 0 107.045 28.45 128.589 58.224l-55.879 50.946c-15.485-21.172-39.048-34.405-68.671-34.405-51.84 0-88.195 37.713-88.195 93.29s36.355 92.629 88.195 92.629c29.623 0 53.186-11.909 68.671-34.405l55.879 51.607c-21.544 29.112-61.938 57.562-128.589 57.562-100.313 0-172.35-69.472-172.35-167.393 0-98.583 72.037-168.055 172.35-168.055zM690.343 271.537c66.651 0 107.045 28.45 128.589 58.224l-55.879 50.946c-15.485-21.172-39.048-34.405-68.671-34.405-51.84 0-88.195 37.713-88.195 93.29s36.355 92.629 88.195 92.629c29.623 0 53.186-11.909 68.671-34.405l55.879 51.607c-21.544 29.112-61.938 57.562-128.589 57.562-100.313 0-172.35-69.472-172.35-167.393 0-98.583 72.037-168.055 172.35-168.055z" />
<glyph unicode="&#xe90e;" glyph-name="speedrate" d="M505.6 414.241c-31.289-39.195-50.489-79.994-57.6-122.397s0.711-72.155 23.467-89.259c4.978-3.563 10.844-6.77 17.6-9.621s14.4-4.276 22.933-4.276c25.6 0 52.622 8.908 81.067 26.724s53.689 42.046 75.733 72.69c12.089 14.966 27.2 40.086 45.333 75.362s37.156 74.471 57.067 117.586c19.911 43.115 39.822 87.477 59.734 133.086s37.689 86.23 53.333 121.862c-29.867-24.23-64-51.667-102.4-82.31s-75.911-61.109-112.533-91.396c-36.622-30.287-69.867-58.615-99.733-84.983s-51.2-47.391-64-63.069v0zM563.2 592.759l105.6 81.241c-23.467 8.552-48.711 15.322-75.733 20.31s-54.044 7.483-81.067 7.483c-69.689 0-135.467-13.362-197.333-40.086s-115.911-63.247-162.133-109.569c-46.222-46.322-83.022-100.661-110.4-163.017s-41.422-129.167-42.133-200.431h102.4c1.422 56.299 13.156 109.213 35.2 158.741s51.556 92.644 88.533 129.345c36.978 36.701 80 65.741 129.067 87.121s101.333 32.069 156.8 32.069c8.534 0 17.067-0.178 25.6-0.535s17.067-1.247 25.6-2.672v0zM867.2 387.517c17.067-29.218 30.4-60.753 40-94.603s14.4-68.592 14.4-104.224h102.4c-0.711 30.644-4.089 60.575-10.133 89.793s-14.044 57.19-24 83.914c-9.956 26.724-22.222 52.557-36.8 77.5s-30.756 48.46-48.533 70.552l-37.333-122.931z" />
<glyph unicode="&#xe90f;" glyph-name="flag" d="M446 767.607c53.778 10.233 107.778 25.786 162 46.661s108.222 36.429 162 46.661c53.778 10.233 106.445-5.116 158-46.047v-412.586c-51.555 40.931-104.222 56.28-158 46.048s-107.778-25.787-162-46.662c-54.222-20.875-108.222-36.429-162-46.661s-106.444 5.526-158 47.275v412.586c51.556-41.75 104.222-57.508 158-47.275zM128 831.894c0 17.731 14.204 32.106 32 32.106 17.673 0 32-14.441 32-32.106v-767.789c0-17.731-14.204-32.106-32-32.106-17.673 0-32 14.441-32 32.106v767.789z" />
<glyph unicode="&#xe910;" glyph-name="attachments" d="M298.125 51.5c32.32-13 66.831-19.5 103.533-19.5 37.25 0 72.035 6.771 104.355 20.313s61.627 32.771 87.921 57.687l310.6 312-63.27 43.875-304.848-299c-18.625-17.875-39.989-32.229-64.092-43.062s-49.302-16.25-75.596-16.25c-26.294 0-51.219 5.010-74.774 15.031s-45.193 24.781-64.914 44.281c-18.625 18.958-32.731 40.49-42.317 64.594s-14.38 48.615-14.38 73.531c0 24.917 4.793 49.427 14.38 73.531s23.692 45.635 42.317 64.594l310.6 312c12.052 11.375 25.199 20.177 39.441 26.406s29.033 9.344 44.371 9.344c15.886 0 30.95-3.115 45.193-9.344s27.39-15.031 39.441-26.406c23.555-23.833 35.333-52 35.333-84.5s-11.778-59.854-35.333-82.063l-310.6-312c-7.669-8.125-16.845-12.187-27.527-12.187s-19.858 4.063-27.527 12.187c-7.669 7.583-11.504 16.656-11.504 27.219s3.835 19.635 11.504 27.219l173.377 171.438c6.574 6.5 9.723 14.896 9.449 25.187s-5.067 19.229-14.38 26.813c-3.835 3.792-7.943 6.906-12.325 9.344s-9.86 3.656-16.434 3.656c-4.382 0-9.313-1.219-14.79-3.656s-10.408-5.552-14.79-9.344l-167.625-166.563c-22.46-21.667-33.689-48.344-33.689-80.031s11.23-58.635 33.689-80.844c10.408-11.917 22.87-20.99 37.387-27.219s28.348-9.344 41.495-9.344c15.338 0 29.992 3.115 43.961 9.344s25.609 15.302 34.922 27.219l309.778 312c19.173 18.958 33.552 40.219 43.139 63.781s14.38 47.802 14.38 72.719c0 24.917-4.793 49.156-14.38 72.719s-23.966 44.823-43.139 63.781c-16.982 15.708-36.702 28.302-59.162 37.781s-45.741 14.219-69.844 14.219c-26.294 0-51.493-4.74-75.596-14.219s-45.193-22.073-63.27-37.781l-310.6-314.438c-24.651-28.167-43.276-58.906-55.875-92.219s-18.625-67.167-18.077-101.562c0.548-34.396 7.669-68.25 21.364-101.563s33.963-64.052 60.805-92.219c26.294-26 55.601-45.5 87.921-58.5z" />
<glyph unicode="&#xe911;" glyph-name="download" d="M825.6 559.248c-25.6 134.821-156.8 240.752-313.6 240.752s-288-105.931-313.6-240.752c-112-25.68-198.4-118.771-198.4-231.122 0-128.401 115.2-234.332 256-234.332h512c140.8 0 256 105.931 256 234.332 0 112.351-86.4 205.442-198.4 231.122v0zM649.6 398.746l-108.8-105.931c-9.6-9.63-22.4-19.26-38.4-19.26s-22.4 9.63-32 19.26l-108.8 105.931c-19.2 16.050-19.2 44.94 0 64.201 19.2 16.050 48 16.050 67.2 0l32-32.1v150.871c0 25.68 19.2 44.94 44.8 44.94s44.8-19.26 44.8-44.94v-150.871l32 32.1c19.2 16.050 48 16.050 67.2 0s19.2-44.94 0-64.201v0z" />
<glyph unicode="&#xe912;" glyph-name="swap" d="M1011.2 691.2l-182.4 192c-19.2 19.2-44.8 19.2-64 0s-19.2-48 0-67.2l108.8-112h-406.4c-25.6 0-44.8-22.4-44.8-48s22.4-48 44.8-48h406.4l-99.2-112c-19.2-19.2-16-51.2 3.2-67.2 9.6-9.6 22.4-12.8 28.8-12.8 12.8 0 25.6 6.4 32 16l176 195.2c12.8 16 12.8 48-3.2 64zM12.8 204.8l182.4-192c19.2-19.2 44.8-19.2 64 0s19.2 48 0 67.2l-108.8 112h406.4c25.6 0 44.8 22.4 44.8 48s-16 48-44.8 48h-406.4l99.2 112c19.2 19.2 16 51.2-3.2 67.2-9.6 9.6-22.4 12.8-28.8 12.8-12.8 0-25.6-6.4-32-16l-176-195.2c-12.8-16-12.8-48 3.2-64z" />
<glyph unicode="&#xe913;" glyph-name="mainslide" d="M969.6 800h-915.2c-28.8 0-54.4-22.4-54.4-57.6v-588.8c0-32 25.6-57.6 54.4-57.6h915.2c28.8 0 54.4 25.6 54.4 57.6v588.8c0 35.2-25.6 57.6-54.4 57.6zM915.2 204.8h-297.6v217.6h297.6v-217.6z" />
<glyph unicode="&#xe914;" glyph-name="single" d="M54.4 800h915.2c28.8 0 54.4-25.6 54.4-57.6v-588.8c0-28.8-25.6-57.6-54.4-57.6h-915.2c-28.8 0-54.4 25.6-54.4 57.6v592c0 32 25.6 54.4 54.4 54.4z" />
<glyph unicode="&#xe915;" glyph-name="split" d="M54.4 800h915.2c28.8 0 54.4-25.6 54.4-57.6v-588.8c0-28.8-25.6-57.6-54.4-57.6h-915.2c-28.8 0-54.4 25.6-54.4 57.6v588.8c0 32 25.6 57.6 54.4 57.6zM537.6 800h-54.4v-704h54.4v704z" />
<glyph unicode="&#xe916;" glyph-name="viewpoint" d="M1004.8 681.6l-585.6 118.4c-16 3.2-28.8-9.6-28.8-25.6v-652.8c0-16 16-28.8 28.8-25.6l585.6 118.4c12.8 3.2 19.2 12.8 19.2 28.8v416c0 9.6-6.4 19.2-19.2 22.4zM825.6 444.8l-128-153.6c-6.4-9.6-22.4-6.4-22.4 9.6v310.4c0 12.8 16 19.2 22.4 9.6l128-156.8c3.2-6.4 3.2-12.8 0-19.2zM0 707.2v-515.2c0-16 16-28.8 32-22.4l115.2 41.6v480l-115.2 41.6c-16 6.4-32-9.6-32-25.6zM195.2 742.4v-585.6c0-16 16-28.8 35.2-22.4l112 44.8v537.6l-112 44.8c-19.2 9.6-35.2-3.2-35.2-19.2z" />
<glyph unicode="&#xe917;" glyph-name="arrow-left2" d="M242.568 194.552c19.618-19.583 51.416-19.583 70.998 0 19.629 19.583 19.629 51.381 0 70.998l-142.196 142.196h610.443c27.722 0 50.186 22.464 50.186 50.186s-22.464 50.186-50.186 50.186h-610.443l142.196 142.196c19.629 19.583 19.629 51.381 0 70.998-9.791 9.791-22.639 14.687-35.499 14.687s-25.708-4.896-35.499-14.687l-227.881-227.881c-19.583-19.583-19.583-51.369 0-70.998l227.881-227.881z" />
<glyph unicode="&#xe918;" glyph-name="icon_close" d="M595.882 432l124.255 124.255c19.057 19.057 18.941 49.333 0.194 68.078-18.876 18.876-49.225 18.658-68.078-0.194l-124.255-124.255-124.255 124.255c-19.057 19.057-49.333 18.941-68.078 0.194-18.876-18.876-18.658-49.225 0.194-68.078l124.255-124.255-124.255-124.255c-19.057-19.057-18.941-49.333-0.194-68.078 18.876-18.876 49.225-18.658 68.078 0.194l124.255 124.255 124.255-124.255c19.057-19.057 49.333-18.941 68.078-0.194 18.876 18.876 18.658 49.225-0.194 68.078l-124.255 124.255z" />
<glyph unicode="&#xe919;" glyph-name="icon_audiotrack" d="M571.323 218.003c12.317-55.26 83.136-85.96 157.035-70.61 64.662 12.28 110.849 58.33 113.928 104.38v546.458c0 18.42-15.396 33.77-33.87 33.77-6.158 0-12.317-3.070-15.396-3.070l-394.128-104.38c-18.475 0-33.87-15.35-33.87-33.77v-454.358c-24.633 9.21-58.503 9.21-89.295 3.070-73.899-15.35-126.244-73.68-113.928-128.939s83.136-85.96 157.035-70.61c64.662 12.28 110.849 58.33 113.928 104.38v368.398l341.783 92.1v-257.879c-27.712 3.070-58.503 6.14-89.295 0-73.899-15.35-126.244-73.68-113.928-128.939z" />
<glyph unicode="&#xe91c;" glyph-name="related" d="M160 128h288v288h-288v-288zM160 512h288v288h-288v-288zM544 800v-288h288v288h-288zM544 128h288v288h-288v-288z" />
<glyph unicode="&#xe91e;" glyph-name="ad" d="M512 768c102.4 0 186.667-4.892 252.8-14.676s118.4-27.255 156.8-52.414c38.4-25.158 65.067-59.402 80-102.731s22.4-98.538 22.4-165.628c0-67.090-7.467-122.299-22.4-165.628s-41.6-77.572-80-102.731c-38.4-25.159-90.667-42.63-156.8-52.414s-150.4-14.676-252.8-14.676c-102.4 0-186.667 4.892-252.8 14.676s-118.4 27.255-156.8 52.414c-38.4 25.159-65.067 59.402-80 102.731s-22.4 98.538-22.4 165.628c0 67.090 7.467 122.299 22.4 165.628s41.6 77.572 80 102.731c38.4 25.158 90.667 42.63 156.8 52.414s150.4 14.676 252.8 14.676zM824.685 618.992l-27.89-15.996c41.803-43.368 68.543-102.744 68.543-167.82 0-65.089-26.702-124.453-68.543-168.963l27.89-15.996c45.316 49.093 72.031 113.039 72.031 183.804 0 71.969-26.715 135.891-72.031 184.971zM826.542 434.443c0 58.209-24.377 110.742-63.893 147.291l-29.040-16.008c37.178-31.955 61.555-78.787 61.555-131.283s-24.377-100.459-61.555-131.283l29.040-16.008c39.516 36.55 63.893 89.083 63.893 147.291zM390.869 387.181h-74.283l79.243 120.038-4.96-120.038zM466.462 270.934l1.77 323.219h-107.015l-221.548-323.219h97.846l30.512 50.13h114.916l-1.676-50.13h85.195zM570.561 344.115h-13.871v175.524h14.362c59.465 0 89.702-38.263 89.702-87.521 0-47.356-33.158-88.003-90.193-88.003zM575.444 270.934c101.879 4.208 175.5 64.956 175.5 163.954s-73.62 159.265-175.991 159.265h-94.084v-323.219h94.575z" />
</font>
</defs>
</svg>
